<svg version="1.2" baseProfile="tiny-ps" xmlns="http://www.w3.org/2000/svg" viewBox="0 0 1640 506" width="1640" height="506">
	<title>wave7-svg</title>
	<style>
		tspan { white-space:pre }
		.shp0 { fill: #000000 } 
		.shp1 { fill: #6e6e80 } 
	</style>
	<path id="Layer" class="shp0" d="M0 -400L1640 -400L1640 549L0 549L0 -400Z" />
	<path id="Layer" class="shp1" d="M0 549L0 -400L0 169C158.31 224.89 316.62 280.79 455 278C593.38 275.21 711.83 213.75 830 147C948.17 80.25 1066.05 8.21 1201 11C1335.95 13.79 1487.98 91.39 1640 169L1640 549L0 549Z" />
	<path id="Layer" class="shp0" d="M0 549L0 -400L0 454C119.81 485.93 239.62 517.86 363 481C486.38 444.14 613.33 338.5 744 294C874.67 249.5 1009.05 266.14 1159 303C1308.95 339.86 1474.48 396.93 1640 454L1640 549L0 549Z" />
</svg>